<svg width="288" height="294" viewBox="0 0 288 294" fill="none" xmlns="http://www.w3.org/2000/svg">
<circle cx="144.5" cy="146.5" r="141.5" fill="#FAE7FD"/>
<path d="M6.88034 192.844C6.48919 189.366 5.16234 186.344 4.44141 183.154C1.72256 171.166 0.165653 159.025 0.353557 146.788C0.491608 137.696 1.04765 128.596 2.86916 119.554C4.43758 111.781 6.15556 104.061 8.72102 96.6105C11.7121 87.9247 15.708 79.6378 20.4132 71.696C26.1309 62.0439 32.7535 53.1165 40.5649 45.0712C47.9277 37.4898 55.8158 30.5758 64.5246 24.5168C72.7616 18.7839 81.4359 13.9636 90.7122 10.2937C99.6395 6.76186 108.87 4.24625 118.323 2.29435C127.369 0.42682 136.426 -0.0755371 145.534 0.00882776C153.606 0.0855231 161.644 0.656907 169.647 2.31353C179.004 4.25008 188.18 6.712 196.989 10.2937C206.53 14.1783 215.507 19.2248 224.016 25.0959C235.183 32.8038 245.004 41.9458 253.632 52.4033C261.421 61.8406 268.097 72.0066 273.262 83.1006C276.775 90.6397 279.49 98.4972 281.81 106.508C284.069 114.304 285.771 122.246 286.492 130.253C287.29 139.157 287.555 148.134 286.964 157.138C286.496 164.294 285.863 171.419 284.456 178.41C281.906 191.088 277.607 203.229 271.939 214.848C268.235 222.445 263.557 229.447 258.391 236.127C253.816 242.048 248.954 247.731 243.52 252.866C236.272 259.718 228.706 266.169 220.258 271.602C212.566 276.553 204.467 280.687 196.053 284.042C186.497 287.854 176.573 290.596 166.295 292.107C151.248 294.32 136.331 294.178 121.279 292.003C111.144 290.539 101.446 287.708 92.0045 284.085C84.3426 281.143 76.9377 277.431 70.0121 272.895C63.98 268.941 58.0093 264.926 52.4105 260.351C44.3345 253.748 37.1635 246.285 30.7019 238.121C25.5787 231.648 21.1802 224.711 17.2841 217.433C13.1042 209.606 9.77559 201.434 6.88034 192.844ZM140.315 286.052C149.618 286.094 158.829 285.929 168.094 284.196C178.835 282.19 189.078 278.908 198.948 274.509C207.569 270.667 215.653 265.754 223.269 260.056C232.675 253.011 240.993 244.87 248.659 236.035C253.743 230.179 258.042 223.725 262.046 217.076C266.003 210.499 269.205 203.539 271.683 196.318C274.183 189.032 276.188 181.6 277.588 173.954C279.041 166.031 279.808 158.086 280.096 150.105C280.499 138.958 279.072 127.898 276.856 117C275.122 108.491 272.384 100.215 268.975 92.2197C264.822 82.4794 259.684 73.2951 253.506 64.6438C246.139 54.3283 237.331 45.4738 227.583 37.4975C220.044 31.3274 211.795 26.1888 203.151 21.7366C197.273 18.711 191.237 15.8733 184.906 13.9981C175.775 11.2907 166.48 9.45003 156.954 8.2881C146.025 6.9536 135.245 7.43294 124.516 8.84414C114.906 10.1058 105.495 12.6981 96.4298 16.2721C85.9341 20.4098 76.0519 25.6941 66.8408 32.2439C53.8792 41.4588 42.8811 52.595 33.6163 65.5067C26.6601 75.201 21.0766 85.62 16.8354 96.7524C13.5528 105.365 11.2098 114.273 9.77174 123.373C8.15731 133.604 7.73549 143.916 8.05378 154.293C8.3759 164.938 9.85611 175.426 12.667 185.619C15.4472 195.709 19.3203 205.483 24.4512 214.679C31.2733 226.904 39.4682 238.048 49.6572 247.743C58.4426 256.102 68.0871 263.289 78.6327 269.137C89.6116 275.222 101.158 280.05 113.521 282.742C122.188 284.629 130.843 286.458 140.315 286.052Z" fill="#401854"/>
<path d="M6.88034 192.844C6.48919 189.366 5.16234 186.344 4.44141 183.154C1.72256 171.166 0.165653 159.025 0.353557 146.788C0.491608 137.696 1.04765 128.596 2.86916 119.554C4.43758 111.781 6.15556 104.061 8.72102 96.6105C11.7121 87.9247 15.708 79.6378 20.4132 71.696C26.1309 62.0439 32.7535 53.1165 40.5649 45.0712C47.9277 37.4898 55.8158 30.5758 64.5246 24.5168C72.7616 18.7839 81.4359 13.9636 90.7122 10.2937C99.6395 6.76186 108.87 4.24625 118.323 2.29435C127.369 0.42682 136.426 -0.0755371 145.534 0.00882776C153.606 0.0855231 161.644 0.656907 169.647 2.31353C179.004 4.25008 188.18 6.712 196.989 10.2937C206.53 14.1783 215.507 19.2248 224.016 25.0959C235.183 32.8038 245.004 41.9458 253.632 52.4033C261.421 61.8406 268.097 72.0066 273.262 83.1006C276.775 90.6397 279.49 98.4972 281.81 106.508C284.069 114.304 285.771 122.246 286.492 130.253C287.29 139.157 287.555 148.134 286.964 157.138C286.496 164.294 285.863 171.419 284.456 178.41C281.906 191.088 277.607 203.229 271.939 214.848C268.235 222.445 263.557 229.447 258.391 236.127C253.816 242.048 248.954 247.731 243.52 252.866C236.272 259.718 228.706 266.169 220.258 271.602C212.566 276.553 204.467 280.687 196.053 284.042C186.497 287.854 176.573 290.596 166.295 292.107C151.248 294.32 136.331 294.178 121.279 292.003C111.144 290.539 101.446 287.708 92.0045 284.085C84.3426 281.143 76.9377 277.431 70.0121 272.895C63.98 268.941 58.0093 264.926 52.4105 260.351C44.3345 253.748 37.1635 246.285 30.7019 238.121C25.5787 231.648 21.1802 224.711 17.2841 217.433C13.1042 209.606 9.77559 201.434 6.88034 192.844ZM140.315 286.052C149.618 286.094 158.829 285.929 168.094 284.196C178.835 282.19 189.078 278.908 198.948 274.509C207.569 270.667 215.653 265.754 223.269 260.056C232.675 253.011 240.993 244.87 248.659 236.035C253.743 230.179 258.042 223.725 262.046 217.076C266.003 210.499 269.205 203.539 271.683 196.318C274.183 189.032 276.188 181.6 277.588 173.954C279.041 166.031 279.808 158.086 280.096 150.105C280.499 138.958 279.072 127.898 276.856 117C275.122 108.491 272.384 100.215 268.975 92.2197C264.822 82.4794 259.684 73.2951 253.506 64.6438C246.139 54.3283 237.331 45.4738 227.583 37.4975C220.044 31.3274 211.795 26.1888 203.151 21.7366C197.273 18.711 191.237 15.8733 184.906 13.9981C175.775 11.2907 166.48 9.45003 156.954 8.2881C146.025 6.9536 135.245 7.43294 124.516 8.84414C114.906 10.1058 105.495 12.6981 96.4298 16.2721C85.9341 20.4098 76.0519 25.6941 66.8408 32.2439C53.8792 41.4588 42.8811 52.595 33.6163 65.5067C26.6601 75.201 21.0766 85.62 16.8354 96.7524C13.5528 105.365 11.2098 114.273 9.77174 123.373C8.15731 133.604 7.73549 143.916 8.05378 154.293C8.3759 164.938 9.85611 175.426 12.667 185.619C15.4472 195.709 19.3203 205.483 24.4512 214.679C31.2733 226.904 39.4682 238.048 49.6572 247.743C58.4426 256.102 68.0871 263.289 78.6327 269.137C89.6116 275.222 101.158 280.05 113.521 282.742C122.188 284.629 130.843 286.458 140.315 286.052Z" fill="#401854"/>
<path d="M211.584 32.5967C223.307 40.1435 233.845 48.8024 242.711 59.3634C250.081 68.1412 256.225 77.7013 261.306 88.036C266.118 97.8261 269.727 108.011 271.932 118.591C274.946 133.052 276.004 147.663 274.018 162.499C273.009 170.023 272.143 177.547 270.022 184.802C267.108 194.784 263.2 204.379 257.969 213.444C253.605 221.007 248.636 228.07 242.964 234.674C236.545 242.151 229.209 248.64 221.505 254.741C214.399 260.367 206.771 265.202 198.531 268.918C190.965 272.331 183.237 275.341 175.081 277.293C169.877 278.54 164.62 279.287 159.397 280.323C155.382 281.12 151.298 280.829 147.275 280.867C139.456 280.944 131.637 280.814 123.833 279.583C112.279 277.761 101.296 274.16 90.716 269.428C78.1763 263.818 66.8638 256.16 56.6518 246.933C46.1253 237.423 37.2977 226.578 30.1919 214.227C23.7955 203.106 19.2359 191.306 16.3292 178.908C13.3265 166.096 12.3257 152.997 13.1617 139.871C13.5873 133.198 14.2776 126.518 15.6696 119.903C17.8056 109.764 20.858 99.9467 25.0763 90.5324C29.5975 80.4431 35.526 71.1822 42.4056 62.4926C49.7683 53.1933 58.224 45.075 67.7036 38.0267C76.0902 31.7914 85.2361 26.8561 94.8269 22.7145C99.256 20.801 103.816 19.2402 108.436 17.9556C116.459 15.7276 124.569 13.9559 132.937 13.3078C140.794 12.6981 148.606 13.1161 156.436 13.3807C160.079 13.5034 163.573 14.5081 167.147 15.0181C179.295 16.7514 190.454 21.4184 201.391 26.672C204.869 28.344 208.091 30.5451 211.584 32.5967ZM65.2531 48.3193C58.8759 53.2699 53.5072 59.2177 48.3533 65.3801C40.4077 74.8789 33.9653 85.3555 29.237 96.7639C25.7627 105.151 22.9863 113.802 21.3681 122.833C20.1754 129.482 19.5159 136.162 19.2014 142.854C18.7183 153.031 19.6769 163.132 21.533 173.195C23.4964 183.832 26.8518 193.96 31.6184 203.585C35.8788 212.19 41.1056 220.194 47.061 227.802C56.1763 239.452 67.5502 248.371 79.8138 256.237C87.4756 261.149 95.8738 264.654 104.448 267.833C114.898 271.706 125.678 273.597 136.637 274.555C151.673 275.874 166.372 273.493 180.68 269.003C187.609 266.828 194.316 263.964 200.785 260.497C209.943 255.592 218.214 249.541 225.918 242.654C233.864 235.556 240.981 227.698 247.121 218.963C251.734 212.401 255.573 205.384 258.713 198.052C262.951 188.154 265.858 177.812 267.276 167.09C267.56 164.958 268.189 162.841 268.204 160.712C268.258 153.561 268.615 146.42 268.458 139.245C268.266 130.333 266.26 121.824 264.174 113.349C262.399 106.132 259.538 99.176 256.274 92.4421C250.894 81.3328 244.226 71.1323 236.073 61.8138C226.206 50.5434 214.51 41.6007 201.595 34.3339C189.649 27.6115 176.807 23.0942 163.185 20.8048C149.246 18.4618 135.376 18.7954 121.563 21.2189C112.674 22.7759 104.08 25.6481 95.7817 29.2029C84.7529 33.9312 74.7059 40.3161 65.2531 48.3193Z" fill="#401854"/>
<path d="M67.0785 176.853C70.641 173.49 71.4309 169.145 72.0023 164.796C72.3168 162.415 72.0713 159.965 72.1864 157.549C72.2746 155.731 71.4578 155.16 69.7283 155.121C60.9965 154.937 54.6193 162.346 56.1532 170.986C56.2606 171.58 56.3641 172.178 56.4101 172.78C56.5904 174.982 55.4131 176.247 53.4037 176.634C51.3866 177.018 49.9371 175.867 49.4884 174.054C47.6937 166.798 48.9477 158.941 54.9798 153.388C58.665 149.994 62.9753 147.839 68.1484 147.578C72.0637 147.383 73.2716 144.537 71.7531 140.131C70.8672 137.554 68.8194 135.898 67.1935 133.969C61.5104 127.235 61.8172 115.462 68.0065 108.441C69.5941 106.638 69.6439 105.139 68.6162 103.095C66.2157 98.3169 66.695 89.6926 71.1433 85.7734C73.6858 83.5301 74.3223 80.8688 74.6215 77.8278C75.1353 72.6547 78.0804 69.05 82.5403 66.8642C85.2591 65.5297 87.1075 64.3026 88.024 60.9548C89.8723 54.1941 97.6876 48.1045 104.962 48.6375C105.307 48.6644 105.656 48.6145 105.998 48.6452C109.644 48.9827 112.57 48.208 115.427 45.3435C121.21 39.5338 128.404 39.9211 135.621 42.3562C138.355 43.2804 140.767 43.3647 143.003 41.2173C144.794 39.4993 146.627 37.7698 149.104 37.0374C152.364 36.071 153.932 36.907 154.945 40.1052C156.037 43.545 158.035 44.7989 161.74 44.5113C162.66 44.4385 163.07 43.8556 163.607 43.3034C167.17 39.6642 171.024 36.443 175.886 34.6291C179.468 33.2908 183.153 32.3513 186.965 32.6504C190.918 32.961 191.754 35.3002 190.562 40.5347C190.036 42.8432 189.147 45.1211 187.739 47.4257C190.493 48.6682 193.012 50.1331 195.735 50.9039C197.326 51.3564 197.25 49.4773 197.342 48.3116C197.633 44.5612 199.535 43.2919 203.075 44.519C203.807 44.7721 204.601 44.9446 205.238 45.3588C211.902 49.6883 216.412 57.3578 215.507 65.9323C215.12 69.5984 213.927 72.7736 211.933 75.734C210.913 77.2526 210.871 78.9207 211.381 80.4546C213.873 87.9592 215.561 95.7131 218.337 103.13C219.173 105.361 219.257 107.57 218.211 109.886C217.187 112.149 218.747 114.27 219.438 116.267C222.655 125.586 226.003 134.858 228.81 144.315C229.872 147.889 226.77 151.988 223.054 152.142C222.364 152.169 221.673 152.13 220.983 152.176C218.095 152.364 217.217 153.139 217.39 156.007C217.62 159.823 215.645 163.332 216.059 167.143C216.078 167.304 216.017 167.508 215.921 167.638C213.421 171.097 214.034 174.498 215.239 178.41C217.95 187.203 211.971 193.945 203.278 195.716C199.336 196.522 195.374 196.096 191.417 195.9C191.072 195.885 190.734 195.781 190.389 195.778C182.486 195.709 183.59 194.386 183.859 202.542C184.02 207.516 184.978 212.466 185.653 217.417C185.83 218.713 185.508 219.741 184.833 220.819C180.227 228.162 175.844 235.651 171.02 242.842C168.685 246.324 169.125 249.859 169.451 253.506C169.643 255.642 170.211 257.74 170.587 259.86C171.077 262.614 169.938 264.474 167.204 264.523C158.841 264.669 150.465 264.777 142.11 264.493C138.789 264.382 136.296 261.69 133.593 259.941C122.196 252.567 110.599 245.53 98.5427 239.287C92.1502 235.977 85.6196 232.921 79.0966 229.872C77.394 229.079 76.4276 227.924 76.397 226.16C76.3624 224.251 77.1639 222.717 78.9739 221.743C80.7878 220.769 82.4751 219.561 84.2736 218.556C92.1272 214.169 96.2879 207.267 97.9445 198.623C98.2206 197.185 98.7652 195.785 98.9147 194.34C99.1793 191.797 99.4401 189.684 95.9389 188.365C90.2865 186.233 86.8314 178.74 87.8591 172.451C88.1697 170.552 87.8169 169.141 86.6089 167.703C85.4547 166.334 84.3272 164.923 83.7252 163.144C83.1385 161.414 81.804 160.582 79.691 160.789C78.8819 163.351 78.8627 166.123 78.694 168.819C78.2491 176.032 71.9985 184.549 65.1726 186.9C63.6272 187.433 62.1239 188.093 60.5594 188.561C57.8865 189.362 55.2137 188.162 54.5886 185.98C54.0287 184.036 55.7391 181.581 58.5423 181.106C61.8057 180.55 64.4785 179.054 67.0785 176.853ZM96.9206 230.11C102.761 232.768 108.356 235.901 113.932 239.061C122.226 243.762 130.337 248.763 138.286 254.035C140.311 255.378 142.251 257.092 144.974 257.069C150.063 257.03 155.155 257.053 160.244 257.096C162 257.111 162.886 256.612 162.277 254.645C161.843 253.249 161.471 251.807 161.318 250.362C161.034 247.727 160.789 245.208 162.445 242.673C167.043 235.628 171.357 228.4 175.775 221.24C177.106 219.085 177.765 216.85 177.758 214.2C177.731 207.616 175.921 201.208 176.082 194.623C176.112 193.412 175.142 193.055 174.23 192.767C169.701 191.352 165.383 189.45 161.437 186.827C152.417 180.841 145.565 173.168 143.145 162.258C142.827 160.824 142.209 160.08 140.856 159.953C137.274 159.623 134.429 157.71 131.549 155.8C130.824 155.321 130.295 154.293 129.002 154.581C130.218 162.335 127.491 167.995 119.891 170.844C120.585 172.849 121.241 174.613 121.804 176.404C122.821 179.626 121.084 182.693 117.908 183.721C115.09 184.638 112.363 183.97 109.79 183.142C105.537 181.773 101.979 179.277 99.8964 175.112C98.9569 173.237 99.7469 171.676 101.2 170.583C102.615 169.521 103.942 170.165 105.058 171.404C105.626 172.033 106.281 172.55 106.822 173.244C108.624 175.561 111.159 176.266 114.185 176.282C112.674 173.164 111.558 170.115 109.476 167.573C108.563 166.461 108.321 165.31 109.15 164.01C109.94 162.772 111.029 162.269 112.444 162.526C113.544 162.726 114.614 163.079 115.715 163.263C118.844 163.78 121.218 162.212 122.153 159.071C122.901 156.563 121.383 153.028 118.917 152.253C117.207 151.712 116.842 150.447 116.704 149.135C116.543 147.632 117.08 146.244 118.71 145.611C119.477 145.316 120.228 144.982 121.022 144.652C120.853 144.28 120.727 143.839 120.643 143.847C116.401 144.246 113.368 147.755 109.031 148.165C109.637 149.089 110.454 149.404 111.113 149.918C114.783 152.759 115.197 156.264 111.926 158.695C108.962 160.897 105.629 162.515 101.883 163.036C99.2867 163.401 96.6982 163.788 93.803 164.214C95.8968 167.496 95.1068 170.829 95.1643 174.05C95.264 179.526 98.2091 182.816 103.685 182.797C106.251 182.789 106.876 183.993 106.776 186.056C106.577 190.098 106.274 194.117 105.495 198.124C103.8 206.849 100.832 214.798 93.9832 220.911C92.2 222.502 89.8301 223.269 88.1352 225.282C90.8042 227.334 93.7915 228.457 96.9206 230.11ZM202.407 170.756C203.228 169.21 204.413 168.305 206.242 168.148C207.834 168.01 208.858 166.898 208.639 165.333C208.367 163.362 206.633 164.156 205.491 164.194C203.826 164.252 202.423 165.119 201.035 166.027C199.635 166.94 197.902 167.247 196.847 165.748C195.8 164.256 195.934 162.43 197.372 161.046C198.297 160.156 199.374 159.505 200.597 158.975C203.174 157.859 205.912 157.545 208.612 157.077C210.729 156.709 210.196 155.187 210.257 153.89C210.319 152.498 209.46 152.226 208.263 152.142C202.615 151.735 200.663 148.99 202.074 143.544C202.772 140.852 206.089 138.444 208.206 139.096C210.372 139.763 210.859 141.286 209.897 144.307C209.855 144.434 209.989 144.618 210.135 145.047C213.214 145.047 216.389 145.105 219.56 145.024C221.225 144.982 221.182 143.962 220.722 142.662C219.177 138.302 217.793 133.884 216.19 129.543C214.295 124.409 212.861 119.094 210.407 114.25C209.444 113.978 208.731 114.335 208.068 114.714C205.111 116.398 203.328 118.729 203.247 122.357C203.121 127.929 200.709 130.92 195.789 132.132C192.84 132.857 191.168 131.806 190.623 128.826C190.512 128.22 190.516 127.53 189.964 127.208C187.344 125.686 185.412 122.971 181.934 122.909C179.813 122.871 177.255 122.752 176.879 119.957C176.53 117.345 178.923 116.67 180.753 115.773C185.983 113.207 191.091 110.458 196.747 108.74C200.344 107.647 203.972 107.306 207.6 106.684C210.418 106.201 211.346 105.051 210.572 102.731C208.696 97.1128 206.925 91.4642 205.418 85.7351C204.915 83.8215 203.75 83.2578 201.909 84.1973C200.678 84.8262 199.366 85.4321 197.959 85.2404C195.49 84.8991 193.634 85.8463 192.054 87.6333C190.788 89.0637 189.247 90.1489 187.571 91.0501C186.539 91.6061 185.933 92.3692 185.765 93.6654C184.695 101.856 179.012 107.087 171.959 109.718C170.249 110.354 168.013 110.458 167.269 112.437C166.717 113.913 165.966 115.251 165.214 116.578C161.981 122.296 162.219 126.123 166.288 131.104C169.102 134.548 168.569 138.08 165.187 141.017C161.199 144.484 152.329 144.415 147.915 138.505C145.565 135.357 144.161 131.971 144.284 128.006C144.326 126.679 143.9 125.713 142.455 125.291C139.326 124.382 136.185 123.473 133.489 121.521C133.109 121.245 132.676 121.164 132.277 121.41C130.118 122.756 127.522 123.3 125.34 125.084C126.709 125.835 127.921 126.43 129.064 127.139C130.935 128.301 131.322 130.034 130.697 132.044C130.191 133.662 128.983 134.809 127.902 136.036C127.342 136.672 126.583 137.267 127.081 138.279C130.452 145.105 134.59 151.697 142.83 152.333C148.498 152.771 149.829 155.605 150.4 160.091C150.412 160.176 150.442 160.26 150.458 160.344C152.019 168.765 157.069 174.725 164.052 179.15C173.566 185.182 184.242 187.594 195.298 188.522C198.711 188.81 202.185 188.956 205.36 187.042C208.236 185.309 209.237 182.21 207.887 179.127C207.059 177.236 205.897 175.76 204.133 174.671C202.879 173.893 201.671 172.949 202.407 170.756ZM79.8866 144.154C81.1367 144.123 82.0264 143.701 81.3668 142.279C80.5538 140.534 80.3698 138.647 79.8904 136.826C77.1562 126.476 79.1312 116.839 84.6571 107.908C86.0989 105.576 87.6175 102.758 90.6738 102.182C92.898 101.764 93.1281 100.464 93.2853 98.7349C93.6458 94.6739 92.664 91.0692 90.0411 87.8864C88.6567 86.2029 88.5915 84.3354 90.2328 82.7785C91.9815 81.1219 93.6803 81.7968 95.264 83.2233C96.2419 84.1053 96.8823 85.2174 97.6186 86.2796C98.2091 87.1348 98.4162 88.3964 99.766 88.7722C100.832 87.2345 101.837 85.7542 102.872 84.2932C105.238 80.9646 108.831 79.1661 112.079 82.7363C112.271 82.9472 112.685 82.951 112.95 83.0392C113.725 82.4717 113.897 81.6932 114.192 80.9838C115.707 77.3408 116.907 73.5252 119.304 70.3308C122.564 65.9822 125.409 61.1005 131.411 59.9194C131.944 59.8159 132.377 59.4976 132.546 58.9646C133.389 56.2917 134.49 53.7148 135.721 51.2452C135.276 50.9 135.088 50.7275 134.877 50.5933C128.753 46.6933 123.864 47.188 118.771 52.2499C115.799 55.2027 112.524 56.8899 108.107 55.8699C105.399 55.2448 102.638 55.8239 100.092 57.074C95.3522 59.3979 94.4664 63.9383 93.6803 68.4633C93.2469 70.9444 91.7744 72.624 89.4313 72.8234C84.1547 73.2721 81.5892 75.8529 81.7465 81.1103C81.8423 84.4159 80.7571 86.8357 78.322 89.0291C73.8967 93.0173 73.3138 96.8597 76.0135 102.133C77.7161 105.457 77.4707 108.494 75.2427 111.562C73.9389 113.357 72.1404 114.745 71.2967 116.939C68.8233 123.362 71.3964 128.359 75.676 132.818C77.5167 134.736 78.7438 136.81 79.1005 139.453C79.296 140.971 78.7899 142.574 79.8866 144.154ZM185.4 71.2933C188.219 70.6644 190.259 68.935 192.146 66.8258C193.323 65.5105 194.849 64.5557 196.651 66.0627C198.316 67.4547 198.408 68.9196 197.384 70.86C196.483 72.5703 194.841 73.8626 194.385 75.8721C196.521 77.3254 198.504 77.5172 200.778 76.3399C205.966 73.6594 209.118 66.4615 207.581 60.4026C206.99 58.0711 206.238 55.8354 203.677 54.3091C202.507 58.2781 200.329 61.2271 196.732 63.0026C194.243 64.2297 191.605 62.7035 191.728 59.9578C191.766 59.0489 192.165 58.1554 192.472 56.9705C189.4 56.1575 186.202 55.9351 183.425 54.2976C182.551 53.7799 181.658 54.4204 181.324 55.4903C185.143 57.7336 185.707 59.6088 183.847 63.4167C183.195 64.7551 182.329 65.9208 181.282 66.9562C177.294 70.9022 172.838 74.1924 167.806 76.6927C166.967 77.1107 166.192 77.6437 166.775 78.9207C167.565 80.654 167.07 82.2224 165.939 83.7372C161.249 90.0454 155.677 95.3067 148.579 98.8346C147.632 99.3063 146.263 99.6975 146.938 101.243C147.532 102.604 148.379 103.153 150.005 102.324C151.29 101.669 152.816 101.837 154.227 102.554C160.796 105.887 172.469 104.188 176.971 96.6066C178.214 94.5129 177.957 93.6539 175.541 93.3739C172.953 93.0748 170.418 92.7067 168.14 91.33C167.918 91.1958 167.668 91.1153 167.446 90.9849C165.693 89.961 164.604 88.4156 165.459 86.4867C166.242 84.715 168.056 84.2702 169.873 84.9336C173.796 86.3601 177.75 86.7283 181.738 85.4091C184.173 84.6038 186.378 83.369 187.72 81.0835C187.022 80.1632 186.183 80.259 185.465 80.0289C183.096 79.2735 180.63 78.6983 178.421 77.6092C177.167 76.988 175.687 75.7378 176.419 73.8588C177.075 72.1715 178.475 71.4276 180.319 71.4697C181.872 71.5081 183.422 71.4237 185.4 71.2933ZM142.482 85.2212C137.983 87.756 134.034 90.8238 131.813 95.8013C137.792 97.5462 156.083 87.3917 157.265 81.6587C152.011 81.141 147.283 82.4755 142.482 85.2212ZM127.863 70.6184C121.732 78.0387 119.247 86.456 120.374 96.3497C126.119 92.9866 132.262 79.0664 129.608 69.5677C128.876 69.4028 128.542 69.9588 127.863 70.6184ZM118.418 111.892C116.861 113.445 115.243 114.956 114.503 117.153C120.765 119.14 135.28 113.165 138.647 106.243C137.243 105.074 135.564 105.446 134.003 105.561C128.278 105.994 123.193 108.103 118.418 111.892ZM153.15 68.912C151.835 70.2273 150.239 71.347 149.963 73.3986C155.159 75.5423 171.656 68.145 175.457 61.7026C167.013 61.1695 159.715 63.2403 153.15 68.912ZM87.4909 119.224C85.7461 124.424 86.237 129.739 86.7317 135.043C86.8045 135.844 87.0001 136.891 88.0968 136.975C88.952 137.04 89.37 136.316 89.8378 135.652C91.7974 132.88 92.9862 129.873 93.7186 126.518C94.6888 122.062 94.01 117.805 93.1511 113.506C92.9862 112.678 92.6065 111.796 91.5558 111.716C90.5894 111.643 90.321 112.475 89.926 113.134C88.8638 114.918 87.9281 116.747 87.4909 119.224ZM120.32 132.588C119.864 131.898 119.135 132.005 118.461 131.94C114.146 131.515 110.024 132.577 106.07 134.007C101.779 135.564 98.1669 138.268 95.3407 142.006C96.2994 142.789 97.2427 142.9 98.1784 142.885C103.98 142.785 109.403 141.086 114.38 138.291C116.674 136.998 119.423 135.859 120.32 132.588ZM102.891 103.571C102.926 107.022 102.922 110.477 103.018 113.924C103.045 114.852 103.256 116.007 104.28 116.279C105.449 116.593 105.913 115.508 106.224 114.619C106.623 113.472 107.328 112.471 107.892 111.451C110.802 106.174 109.794 100.51 109.759 94.9615C109.748 93.2704 109.345 91.399 107.47 90.099C104.655 94.0872 102.937 98.2671 102.891 103.571ZM147.647 59.2598C149.223 55.2065 148.74 51.0496 148.586 46.7508C141.358 50.0526 136.806 67.4777 139.916 72.3096C143.647 68.7777 145.795 64.3447 147.647 59.2598ZM155.78 110.669C152.874 109.932 150.155 108.794 147.942 106.527C145.569 109.246 143.862 112.038 141.557 114.365C140.246 115.692 140.898 116.985 142.873 117.541C147.141 118.749 151.025 117.391 154.818 115.627C156.597 114.799 158.127 113.645 159.032 111.578C157.966 111.271 157.073 111.01 155.78 110.669ZM92.9056 156.452C96.9935 156.651 100.947 156.157 104.954 154.492C98.8073 149.4 86.0759 148.468 82.5364 152.625C85.4278 154.972 88.9596 155.647 92.9056 156.452ZM176.979 48.7372C179.295 46.4977 181.581 44.2391 182.329 40.8491C175.48 40.853 166.418 49.6039 165.785 53.9065C170.268 54.0561 173.478 51.5059 176.979 48.7372ZM158.185 132.991C155.961 130.356 155.961 127.036 155.711 123.799C153.215 124.002 151.501 124.758 151.209 127.174C150.864 130.065 153.871 134.87 156.57 135.936C157.525 136.316 158.522 136.423 159.193 135.614C160.018 134.617 159.193 133.892 158.185 132.991ZM191.977 122.173C193.262 122.277 194.703 123.646 195.789 122.188C196.74 120.911 196.444 119.312 195.973 117.828C194.454 117.717 193.423 118.653 192.222 119.04C190.458 119.611 190.098 120.7 191.977 122.173ZM109.786 125.632C110.338 125.241 111.247 125.594 111.765 124.811C107.965 123.833 107.965 123.833 106.972 125.578C107.762 126.092 108.605 125.816 109.786 125.632Z" fill="#401854"/>
<path d="M256.995 141.75C254.779 143 252.252 141.466 250.039 143.061C251.377 144.641 253.03 144.001 254.395 143.947C256.505 143.863 257.732 144.549 257.9 146.696C258.05 148.572 256.635 149.96 254.487 150.025C252.336 150.086 250.185 150.036 248.034 150.048C245.748 150.059 244.425 148.802 244.233 146.658C244.034 144.438 244.084 142.175 244.252 139.951C244.41 137.884 245.541 136.672 247.815 136.745C250.135 136.818 252.463 136.764 254.783 136.757C255.998 136.753 257.195 136.676 257.862 138.064C258.537 139.453 258.061 140.549 256.995 141.75Z" fill="#401854"/>
<path d="M32.5272 136.553C35.3075 136.116 36.3275 137.573 36.5959 139.84C36.688 140.607 36.734 141.397 36.6458 142.16C36.385 144.411 37.2824 145.366 39.564 145.082C40.4077 144.978 41.2628 145.082 42.095 145.416C43.4755 145.968 44.0622 146.869 43.951 148.399C43.8321 150.002 42.674 150.539 41.5236 150.589C38.6092 150.711 35.6794 150.619 32.7612 150.481C31.4113 150.42 30.6098 149.665 30.6405 148.119C30.7019 145.105 30.6636 142.091 30.6329 139.077C30.6175 137.838 30.8975 136.853 32.5272 136.553Z" fill="#401854"/>
<path d="M134.014 193.346C133.731 195.992 132.062 196.46 130.103 196.115C127.825 195.712 127.89 193.856 127.982 192.085C128.086 190.045 129.693 189.439 131.173 189.469C133.286 189.504 134.344 190.904 134.014 193.346Z" fill="#401854"/>
<path d="M142.002 131.518C142.528 134.118 141.247 135.974 140.077 137.796C140.491 138.59 141.178 138.655 141.841 138.847C144.752 139.694 146.021 141.949 145.085 144.511C144.361 146.485 141.968 147.195 139.418 146.06C137.535 145.224 135.767 144.127 134.256 142.708C131.487 140.104 131.353 137.62 133.945 133.789C134.839 132.469 135.541 131.426 134.471 129.881C133.942 129.114 134.183 128.24 134.896 127.549C135.821 126.656 136.848 126.169 138.16 126.529C140.606 127.2 141.412 129.145 142.002 131.518Z" fill="#401854"/>
<path d="M104.862 76.8537C104.375 77.9543 103.566 78.4183 102.738 78.913C101.384 79.7221 100.107 79.7605 98.9684 78.6177C97.8717 77.521 97.6454 76.198 98.4277 74.829C100.69 70.8792 103.915 67.842 107.689 65.3839C110.223 63.735 113.046 62.7034 115.964 61.9058C118.077 61.3268 119.557 62.04 120.386 63.9459C121.087 65.5527 119.868 68.1488 118.008 68.5054C112.551 69.5523 108.521 72.6968 104.862 76.8537Z" fill="#401854"/>
<path d="M87.6827 98.896C86.2332 100.767 84.4155 100.695 82.6822 100.092C81.4934 99.6822 80.8415 98.4742 80.9681 97.1896C81.1483 95.368 82.2489 94.022 83.8058 93.1669C85.5084 92.2312 87.422 93.2206 87.9742 95.1801C88.3155 96.3881 88.07 97.55 87.6827 98.896Z" fill="#401854"/>
</svg>
