<svg width="258" height="259" viewBox="0 0 258 259" fill="none" xmlns="http://www.w3.org/2000/svg">
<circle cx="126" cy="133" r="125" fill="#C8FCE7"/>
<path d="M61.5564 239.914C51.2183 233.329 41.8036 225.851 33.7825 216.725C28.6085 210.839 23.8651 204.625 19.6965 197.962C16.1725 192.328 12.9671 186.534 10.3415 180.437C7.6139 174.103 5.55824 167.556 4.07498 160.796C3.14172 156.541 2.61412 152.218 1.6062 147.98C1.0786 145.757 1.31751 143.443 1.11095 141.173C0.456419 133.958 0.5709 126.749 1.21298 119.494C1.59624 115.156 2.20099 110.856 2.64149 106.533C2.92022 103.795 3.88584 101.192 4.47317 98.5118C5.31186 94.6742 6.72295 90.9636 7.89264 87.2007C9.24649 82.8454 11.1404 78.7117 13.0766 74.5979C15.528 69.3891 18.3029 64.3345 21.5058 59.5737C26.1821 52.6277 31.5477 46.2143 37.2592 40.0722C42.9111 33.9949 49.2697 28.7537 56.0091 24.0227C63.841 18.5251 72.1731 13.8812 81.0727 10.2054C87.9042 7.38573 94.8949 5.15089 102.04 3.49591C112.901 0.977347 123.916 -0.281934 135.127 0.469652C143.579 1.03707 151.826 2.5054 160.046 4.5088C167.42 6.30315 174.546 8.75452 181.37 11.9425C191.309 16.5889 200.717 22.2258 209.183 29.2663C219.148 37.5537 228.018 46.8539 235.332 57.6325C240.073 64.6182 244.134 71.9549 247.529 79.6524C249.956 85.155 252.006 90.8342 253.467 96.6726C255.289 103.95 256.446 111.341 257.215 118.827C258.161 128.048 257.439 137.149 256.628 146.317C256.08 152.497 254.801 158.514 253.442 164.497C252.143 170.211 250.087 175.758 247.681 181.149C243.881 189.665 239.319 197.761 233.796 205.247C226.067 215.729 217.197 225.124 206.742 233.021C198.892 238.951 190.468 243.824 181.616 248.003C174.585 251.32 167.164 253.63 159.658 255.519C146.744 258.766 133.554 259.411 120.302 258.786C114.277 258.502 108.346 257.477 102.431 256.21C96.2712 254.891 90.2261 253.229 84.3354 251.081C78.5616 248.978 72.9446 246.445 67.6064 243.351C65.6453 242.209 63.6618 241.102 61.5564 239.914ZM213.232 163.922C212.239 164.054 211.286 164.191 211.401 162.653C211.55 160.664 210.214 159.831 208.581 159.671C201.147 158.94 194.724 161.406 189.209 166.286C185.809 169.295 182.502 172.426 178.381 174.424C171.681 177.672 166.955 182.503 164.548 189.74C162.465 196.004 163.187 201.765 166.422 207.315C167.468 209.109 168.988 210.451 171.377 209.975C171.766 209.898 172.181 209.965 172.584 209.956C181.156 209.756 188.204 217.422 185.705 225.935C185.563 226.421 185.645 226.819 185.852 227.279C187.116 230.094 186.904 230.691 184.159 232.17C175.113 237.037 165.569 240.477 155.607 243.063C147.048 245.283 138.39 245.847 129.697 245.94C123.366 246.009 117.017 245.726 110.693 244.558C103.961 243.316 97.3463 241.714 90.8931 239.559C80.8139 236.191 71.5584 231.05 62.8306 225.042C53.7145 218.765 45.8477 211.058 38.9018 202.47C32.7423 194.854 27.5608 186.594 23.5291 177.617C20.9732 171.926 18.7732 166.1 17.3571 160.062C15.9859 154.214 14.6694 148.345 14.1567 142.288C13.2707 131.793 13.2135 121.39 15.1123 110.993C16.4612 103.601 18.2979 96.364 20.9309 89.321C22.882 84.1022 25.1617 79.0552 27.9142 74.2147C30.4029 69.8395 32.8816 65.4619 36.1966 61.6368C37.2966 60.3675 39.3672 59.942 40.2656 60.8653C41.4602 62.0922 41.8583 63.4958 40.6588 65.009C37.4086 69.1128 34.7282 73.5751 32.1972 78.1518C29.0391 83.8633 26.533 89.871 24.4425 96.0082C22.9219 100.475 21.8965 105.144 21.1425 109.843C20.0673 116.525 18.7035 123.147 18.9624 129.999C19.1167 134.033 19.3207 138.04 19.801 142.049C20.7318 149.784 22.1852 157.429 24.5545 164.826C26.7296 171.617 29.6837 178.13 33.1952 184.379C34.6536 186.975 36.3185 188.179 39.504 188.097C48.1 187.876 56.5889 187.313 65.0231 185.355C71.6306 183.819 78.0365 181.756 84.2383 179.158C89.8901 176.791 95.3951 173.991 100.378 170.323C102.543 168.728 104.902 167.339 106.592 164.808C104.929 164.012 103.994 162.516 102.087 162.426C97.9212 162.235 94.1209 160.789 90.587 158.636C87.949 157.031 86.0576 154.993 87.1526 151.454C85.4553 150.777 83.8526 150.122 82.2399 149.5C78.1634 147.925 74.6096 145.553 71.9666 142.071C70.9039 140.673 69.6123 139.008 71.1154 136.96C71.7849 136.046 70.8143 135.773 70.2071 135.359C66.6557 132.935 63.2611 130.352 60.7525 126.751C59.1224 124.409 59.0278 122.451 60.7749 120.131C57.3828 117.57 54.4188 114.576 52.1068 110.998C50.4095 108.372 48.212 105.749 51.186 102.546C51.7111 101.981 51.3453 101.319 50.8226 100.769C47.117 96.8543 44.7427 92.183 43.1624 87.0762C42.4059 84.6348 42.9807 82.1362 44.5312 81.2129C46.6939 79.9262 48.0054 81.6534 49.4912 82.7135C49.5459 82.7534 49.5907 82.8056 49.643 82.8454C52.3606 84.8887 55.0808 86.9294 58.214 88.3106C57.2285 87.2629 56.4371 86.0982 55.5337 85.028C49.1652 77.4823 45.2927 68.9137 44.6681 58.9888C44.3421 53.8223 45.9821 49.4895 50.3622 46.4557C50.8873 46.0924 51.39 45.8162 51.3925 45.1119C51.3975 42.9218 51.395 40.7293 51.395 38.4646C50.9421 38.5293 50.6957 38.4894 50.5713 38.594C49.1876 39.7462 47.7964 40.8935 46.4574 42.098C37.426 50.2361 30.0918 59.7429 23.8078 70.1207C20.8164 75.0608 18.4074 80.2796 16.1551 85.5681C14.8983 88.5172 13.9227 91.6007 13.0094 94.6792C11.6954 99.1041 10.8318 103.643 9.80644 108.143C8.32069 114.663 7.66368 121.241 7.37001 127.873C7.11368 133.662 7.6587 139.404 8.47997 145.142C9.32613 151.046 10.3191 156.926 11.8721 162.668C13.2657 167.817 15.0675 172.847 17.2252 177.764C19.4053 182.729 21.7298 187.632 24.6465 192.159C29.3178 199.406 34.3176 206.417 40.2108 212.805C44.907 217.894 50.0213 222.434 55.4392 226.672C62.4025 232.117 69.9706 236.612 77.9469 240.387C81.6924 242.159 85.51 243.824 89.3999 245.24C94.0487 246.93 98.8917 248.018 103.712 249.115C106.975 249.857 110.27 250.715 113.587 250.897C120.859 251.295 128.104 252.408 135.441 251.509C140.082 250.942 144.786 251.024 149.437 250.233C157.518 248.854 165.437 246.823 172.975 243.692C182.111 239.899 190.809 235.208 198.957 229.494C206.993 223.862 214.108 217.255 220.594 209.96C226.569 203.241 231.736 195.897 236.066 188.008C238.801 183.028 241.332 177.911 243.179 172.528C245.127 166.849 247.051 161.18 248.176 155.207C249.321 149.122 250.334 143.054 250.525 136.885C250.697 131.305 250.565 125.718 250.553 120.134C250.55 119.467 250.56 118.772 250.396 118.135C249.216 113.588 249.301 108.822 247.872 104.298C247.42 102.865 246.979 101.351 246.708 99.8656C245.747 94.612 243.729 89.6993 241.748 84.8264C238.157 75.999 233.515 67.7192 227.861 59.9868C220.002 49.2331 210.736 39.9453 200.124 31.9467C195.685 28.6019 190.963 25.7199 186.158 22.9451C180.75 19.8217 175.183 16.9772 169.309 14.9539C161.286 12.1864 153.135 9.81968 144.602 8.91379C138.519 8.26673 132.452 7.84863 126.345 7.84863C125.337 7.84863 124.697 8.19705 124.301 9.12035C123.776 10.3448 123.244 11.5593 123.152 12.8907C123.704 13.4358 124.329 13.3885 124.916 13.386C130.555 13.3636 136.16 13.6423 141.774 14.3591C151.259 15.5686 160.412 18.0174 169.354 21.2527C176.661 23.8957 183.517 27.4969 190.09 31.6804C197.569 36.4388 204.504 41.8591 210.659 48.2128C218.157 55.9526 224.865 64.337 230.091 73.8314C232.48 78.1742 234.774 82.5792 236.549 87.1932C239.162 93.9873 241.402 100.913 242.646 108.133C243.672 114.081 244.553 120.027 244.839 126.072C245.11 131.808 244.6 137.462 244.015 143.149C243.283 150.239 241.934 157.185 239.859 163.989C238.575 168.205 236.955 172.294 235.262 176.371C232.731 182.468 229.511 188.167 225.96 193.682C222 199.831 217.204 205.332 212.18 210.632C206.5 216.62 200.383 222.083 193.375 226.488C192.113 227.282 190.874 227.379 189.764 226.122C188.644 224.855 188.93 223.661 189.888 222.506C190.311 221.996 190.774 221.478 191.317 221.11C196.439 217.641 200.988 213.477 205.403 209.191C213.506 201.33 220.681 192.662 226.042 182.689C229.904 175.505 232.883 167.921 235.153 160.022C237.261 152.688 238.303 145.187 239.09 137.694C240.043 128.588 239.177 119.437 237.385 110.445C236.444 105.724 235.297 101.038 233.786 96.4387C230.989 87.9298 227.231 79.8789 222.523 72.2909C218.237 65.3848 213.013 59.168 207.436 53.2897C202.82 48.4243 197.763 44.0168 192.253 40.1394C187.768 36.9838 183.107 34.1417 178.321 31.4688C173.386 28.7114 168.167 26.6532 162.846 24.9037C156.816 22.9202 150.612 21.5613 144.36 20.3344C137.081 18.9034 129.794 19.2195 122.49 19.2045C121.673 19.2021 120.807 19.441 120.668 20.4489C120.155 24.1645 119.035 27.7657 118.953 31.5783C118.814 38.0464 120.11 44.2757 122.032 50.3381C123.052 53.556 124.189 56.9182 126.728 59.6185C126.892 58.7449 127.121 58.0257 127.141 57.3015C127.191 55.6017 128.228 54.9522 129.694 54.7182C131.827 54.3773 133.251 55.6838 133.475 58.3517C133.88 63.1723 136.205 67.2289 138.497 71.3004C139.654 73.3536 141.356 74.9762 142.872 76.7481C143.853 77.8929 144.017 79.3488 143.148 80.4663C142.198 81.6932 140.742 82.166 139.186 81.285C138.435 80.8595 137.74 80.414 137.126 79.7346C136.479 79.0203 136.04 77.9029 134.679 77.7411C134.809 80.3368 135.846 82.5592 136.824 84.7045C139.117 89.7317 142.979 93.1412 148.257 94.9231C149.895 95.4756 150.868 97.3769 150.47 98.9697C150.044 100.677 148.696 100.737 147.289 100.734C144.089 100.727 141.645 98.9274 139.072 97.3719C137.389 96.3566 136.367 94.4701 134.069 93.6538C134.318 95.3113 133.074 96.5681 133.987 98.1036C136.242 101.889 139.383 104.617 143.303 106.612C145.007 107.481 146.973 107.444 148.559 108.501C149.721 109.275 150.385 110.333 149.937 111.762C149.537 113.038 148.673 113.72 147.227 113.655C145.617 113.583 144.069 113.484 142.494 112.931C139.331 111.819 136.508 110.141 133.786 108.165C133.457 109.843 133.495 109.825 133.943 110.943C136.006 116.092 140.224 118.401 145.303 119.399C149.445 120.216 151.403 122.256 152.095 126.447C152.635 129.735 155.159 133.055 158.787 133.047C155.965 126.492 154.437 119.728 155.378 112.521C155.898 108.534 156.231 104.539 156.298 100.495C156.378 95.6821 152.834 91.0432 148.496 89.3484C146.645 88.6242 145.761 87.0961 146.311 85.6203C146.929 83.9678 148.795 83.2262 150.664 83.8658C152.448 84.4755 154.123 85.3167 155.649 86.4018C158.991 88.7835 161.251 92.0213 162.072 96.0156C163.085 100.941 162.543 105.916 161.779 110.838C161.246 114.273 161.067 117.667 162.264 121.022C162.632 119.653 162.884 118.277 163.147 116.896C163.623 114.407 164.31 111.928 165.527 109.671C166.549 107.775 168.068 107.167 169.62 107.872C170.962 108.481 171.624 110.467 171.066 112.257C170.526 113.984 169.81 115.674 169.456 117.436C168.431 122.543 168.311 127.659 169.379 132.808C170.098 136.283 170.962 137.044 174.528 137.174C177.587 137.286 180.583 136.738 183.473 136.064C188.846 134.809 194.231 134.207 199.612 135.223C203.738 136.001 207.454 137.915 209.479 141.997C209.955 142.955 210.537 143.4 211.682 143.687C217.729 145.205 221.355 150.986 219.723 156.857C218.795 160.261 216.498 162.302 213.232 163.922ZM70.8715 118.498C74.1044 120.35 77.6582 121.428 81.2444 122.129C87.6105 123.374 94.0139 123.108 100.363 121.657C101.94 121.296 103.334 121.789 103.989 123.431C104.616 125.009 103.665 125.93 102.475 126.746C100.034 128.418 97.1596 128.53 94.4046 128.914C87.6528 129.852 81.0553 128.896 74.5673 126.925C72.8127 126.393 71.0134 126.009 69.1344 125.532C69.2016 126.383 69.56 126.604 69.8537 126.87C71.9068 128.722 74.3532 129.951 76.7673 131.231C82.9044 134.486 89.4496 135.404 96.2537 134.449C99.9047 133.936 103.436 133.035 106.594 130.865C108.814 129.339 110.666 129.673 111.579 131.213C112.542 132.843 111.813 134.891 109.71 136.315C107.373 137.9 104.837 138.98 102.122 139.849C96.4429 141.663 90.7214 141.111 84.9725 140.732C83.0885 140.608 81.3763 139.491 79.3555 139.65C79.6243 140.618 80.356 140.892 80.9483 141.292C84.2682 143.535 87.8718 144.913 91.8662 145.578C98.5533 146.688 104.74 145.536 110.711 142.465C112.51 141.539 114.145 140.392 115.872 139.379C117.321 138.53 118.684 138.756 119.822 140.105C120.907 141.392 120.606 142.534 119.655 143.724C118.896 144.677 118.045 145.488 117.019 146.163C111.43 149.836 105.412 152.19 98.6454 152.397C97.4732 152.432 96.311 152.713 94.6485 152.952C96.2313 153.923 97.3363 154.577 98.6379 154.923C102.548 155.961 106.388 155.881 110.372 155.03C114.595 154.127 118.304 152.454 121.708 149.841C123.199 148.696 124.334 147.228 125.78 146.048C127.3 144.806 128.36 145.454 129.465 146.471C130.573 147.492 130.949 148.604 130.003 150.018C127.517 153.731 124.147 156.421 120.212 158.372C117.908 159.515 115.437 160.318 112.998 161.292C113.426 161.951 113.983 162.066 114.491 162.105C122.388 162.73 129.324 160.829 134.657 154.53C136.327 152.556 137.28 150.175 138.728 148.084C139.44 147.056 140.251 146.409 141.588 146.76C142.917 147.111 143.658 147.917 143.75 149.309C143.823 150.394 143.77 151.494 143.29 152.457C139.423 160.199 133.701 165.726 125.008 167.678C121.35 168.499 117.647 167.981 113.963 168.093C113.097 168.118 112.338 168.076 111.636 168.9C108.662 172.389 105.016 175.071 101.186 177.565C95.3155 181.385 88.9942 184.305 82.5186 186.836C77.4218 188.826 72.1557 190.347 66.7627 191.487C60.5136 192.806 54.3043 194.132 47.871 193.966C45.3375 193.901 42.804 193.956 40.2656 193.956C40.2208 195.058 40.7882 195.578 41.2212 196.153C45.7432 202.151 51.2009 207.245 56.579 212.449C59.436 215.217 61.7057 215.966 65.6005 214.219C75.8415 209.625 85.3557 204.149 92.9338 195.69C95.3528 192.99 97.4508 190.046 99.6856 187.201C100.903 185.653 102.284 185.631 103.722 186.771C105.054 187.824 105.283 189.429 104.359 190.885C96.9804 202.507 86.7942 210.931 74.6295 217.113C72.2826 218.305 69.9333 219.497 67.258 220.856C69.3584 222.344 71.1403 223.623 72.9397 224.878C73.6166 225.348 74.3632 225.261 75.0526 224.92C77.698 223.616 80.2415 222.123 82.6481 220.425C90.6791 214.759 97.8365 208.116 104.208 200.64C105.467 199.162 107.393 197.93 107.398 195.723C107.406 191.534 108.876 187.838 111.027 184.404C114.66 178.603 120.407 175.803 126.673 173.909C131.484 172.453 135.632 169.947 138.773 166.06C142.123 161.914 145.595 157.964 150.41 155.485C153.444 153.925 156.734 153.313 160.119 153.363C161.555 153.382 162.829 154.077 162.936 155.694C163.04 157.28 162.217 158.268 160.547 158.639C158.658 159.057 156.779 159.597 154.97 160.279C150.062 162.13 146.655 165.811 143.646 169.915C139.973 174.92 134.953 178.043 129.142 179.72C122.923 181.515 117.808 184.576 115.066 190.601C114.035 192.866 113.229 195.444 114.436 198.378C116.673 194.466 119.162 191.201 122.806 188.936C125.608 187.194 128.557 185.798 131.611 184.586C133.482 183.842 135.525 184.314 136.2 185.731C136.894 187.189 135.971 188.934 134.015 189.907C132.098 190.86 130.145 191.753 128.288 192.813C123.821 195.367 120.665 198.95 120.036 204.264C119.71 207.014 120.232 209.649 121.77 212.325C122.071 210.762 122.258 209.52 122.557 208.305C122.875 207.006 123.162 205.67 123.709 204.46C124.431 202.865 125.386 201.121 127.484 201.464C129.6 201.812 129.358 203.751 129.46 205.354C129.637 208.159 131.743 211.113 134.6 212.066C133.116 210.764 133.266 209.241 132.693 207.957C131.645 205.608 131.914 203.251 132.974 200.934C133.602 199.565 134.55 198.717 136.085 198.948C137.72 199.197 138.328 200.521 138.236 201.92C138.101 203.935 138.654 205.772 139.206 207.626C139.866 209.839 142.275 212.683 145.306 213.061C142.409 207.591 142.934 202.121 145.164 196.703C147.048 192.124 149.36 187.746 151.764 183.421C153.646 180.036 155.562 176.659 158.133 173.743C160.552 170.997 161.98 171.032 164.583 173.665C165.698 173.257 166.751 172.652 167.831 172.152C170.613 170.866 173.545 169.942 176.233 168.394C179.525 166.5 182.181 163.885 184.993 161.431C188.308 158.539 191.981 156.175 196.212 154.99C199.144 154.169 199.955 153.602 200.174 150.376C198.895 150.421 197.618 150.306 196.518 149.582C195.483 148.903 194.863 147.972 195.244 146.688C195.605 145.468 196.556 145.07 197.753 145.125C198.556 145.162 199.363 145.21 200.167 145.22C201.277 145.235 202.409 145.272 203.28 144.217C201.229 142.084 198.803 141.28 196.021 141.026C191.518 140.613 187.141 141.586 182.87 142.512C174.67 144.289 166.828 142.731 159.058 140.703C152.909 139.097 147.083 136.514 141.934 132.584C136.279 128.267 131.924 122.894 129.005 116.463C125.558 108.865 125.717 100.879 127.793 93.0118C129.829 85.2968 128.597 78.0796 125.342 71.1088C122.714 65.4768 119.04 60.3775 116.656 54.5988C114.984 50.5472 113.597 46.3562 113.189 42.0383C112.308 32.6982 112.56 23.4055 115.715 14.374C116.318 12.6518 117.087 10.9222 117.415 9.08551C114.777 8.49071 113.555 8.8914 112.585 11.0441C109.523 17.8233 107.515 24.8713 107.595 32.3971C107.627 35.4906 107.585 38.589 107.727 41.6775C108.095 49.7234 110.892 56.9481 115.364 63.563C116.41 65.111 116.527 67.0298 115.437 67.9406C113.986 69.1526 112.042 69.0606 110.783 67.4802C109.118 65.3873 107.458 63.2569 106.109 60.9574C102.411 54.6585 99.275 48.1057 97.0551 41.0951C94.5938 33.3129 92.7322 25.4761 92.9114 17.2534C92.9313 16.3625 93.2399 15.367 92.4087 14.5109C91.1196 14.7796 89.3824 14.374 89.2008 16.4097C88.6259 22.848 88.5761 29.2315 89.8528 35.6598C90.8184 40.5277 91.8562 45.3906 93.6058 49.9772C95.9402 56.1019 99.0461 61.918 103.406 66.9327C107.635 71.7981 112.52 75.7352 118.764 77.7237C120.889 78.4006 122.052 79.6724 121.75 81.1158C121.382 82.8952 119.389 84.1545 117.308 83.5945C112.731 82.3651 108.583 80.2224 104.832 77.3006C100.584 73.9907 97.2243 69.8246 93.6705 65.8452C88.713 60.2929 84.0741 54.4843 80.2589 48.0784C76.0455 41.003 73.3627 33.3179 71.6206 25.2894C71.5236 24.8464 71.6182 24.3188 71.0706 24.0824C67.3998 25.1874 66.8548 26.1132 67.5516 29.7267C68.9702 37.1082 70.9089 44.2632 74.4403 51.015C77.7652 57.3687 81.8467 63.0703 86.7917 68.1845C89.0714 70.5413 91.5601 72.6965 93.994 74.9015C95.2558 76.0463 95.3628 77.44 94.6012 78.7242C93.8322 80.0183 92.4684 80.2472 91.0573 79.635C90.3207 79.3165 89.5592 79.0228 88.8847 78.5972C81.4933 73.9384 75.4035 67.8287 69.9059 61.1266C65.6652 55.9551 61.5464 50.6666 58.2489 44.7908C59.0129 49.3874 60.3966 53.7601 62.4125 57.9261C65.053 63.3863 68.4301 68.3488 72.5439 72.8036C76.8768 77.4972 81.4161 81.9346 87.1899 84.8936C88.484 85.5556 89.6338 86.5038 90.8433 87.3276C92.3191 88.333 92.4759 89.7814 91.8537 91.2448C91.2739 92.6111 89.92 92.4443 88.7055 92.3323C85.296 92.0188 82.2698 90.528 79.3306 88.9801C71.3544 84.7767 64.2715 79.3463 58.0573 72.7961C56.6039 71.2655 55.1281 69.7549 53.6075 68.1796C53.2242 68.8341 53.269 69.2572 53.4457 69.6106C54.8842 72.4775 56.345 75.3395 58.2663 77.9228C61.6111 82.4199 65.491 86.3719 70.0229 89.6968C76.2795 94.2885 82.9218 97.9941 90.704 99.2733C91.6273 99.4251 92.5058 99.7611 93.2972 100.319C94.1906 100.948 94.7755 101.757 94.6062 102.85C94.432 103.965 93.8173 104.786 92.6451 105.174C91.458 105.567 90.2659 105.572 89.0614 105.5C81.6127 105.06 74.6419 102.76 67.8005 99.9701C62.8181 97.9394 58.0921 95.3735 53.1645 92.748C54.2496 94.6468 55.5536 96.0629 56.9224 97.4441C61.4991 102.051 67.0439 105.137 73.0143 107.431C78.5417 109.557 84.2757 110.873 90.2834 110.562C92.0255 110.472 93.7825 110.48 95.5196 110.614C97.2766 110.751 98.6031 112.239 98.4114 113.879C98.2322 115.415 97.5902 116.672 95.7137 116.826C82.9467 117.876 71.1602 114.706 60.0457 108.596C59.5555 108.325 59.1249 107.757 58.1867 108.404C61.6609 112.638 65.817 115.873 70.8715 118.498ZM90.9553 233.658C94.0537 234.701 97.0949 235.997 100.266 236.736C106.311 238.145 112.376 239.471 118.595 240.051C124.734 240.624 130.809 240.927 136.984 240.275C142.382 239.703 147.742 238.971 153.076 238.013C155.841 237.515 158.693 237.132 159.862 233.869C161.731 228.658 160.285 223.959 154.527 223.327C153.103 223.17 151.622 223.539 150.054 222.77C150.418 225.037 151.946 225.806 153.481 226.411C155.089 227.045 156.256 227.894 155.843 229.785C155.49 231.403 153.476 232.595 151.699 232.199C148.372 231.458 145.98 229.532 144.497 226.381C143.499 224.263 143.23 222.061 143.293 219.569C137.569 220.211 132.166 220.082 127.492 215.56C127.492 217.16 127.462 218.094 127.497 219.027C127.601 221.784 126.22 222.899 123.627 221.941C118.757 220.139 115.529 216.556 114.396 211.62C113.64 208.323 111.83 206.21 109.314 204.172C102.222 214.719 92.8965 222.83 81.8865 229.332C82.5535 229.828 82.8894 230.189 83.3026 230.37C85.7465 231.445 88.2103 232.483 90.9553 233.658ZM179.301 220.712C177.368 216.882 173.926 216.2 170.138 218.93C171.022 220.017 172.151 220.729 173.508 220.948C174.77 221.152 175.412 221.983 175.67 223.039C175.964 224.241 175.394 225.281 174.456 226.05C172.945 227.294 171.243 227.252 169.511 226.627C168.662 226.321 167.851 225.911 166.729 225.42C167.458 228.402 167.547 231.085 166.403 233.839C168.386 233.83 169.588 232.692 171.059 232.294C172.719 231.846 174.294 231.027 175.847 230.253C179.384 228.484 180.894 224.514 179.301 220.712ZM82.8447 21.7331C82.7003 20.7127 83.208 19.5754 82.2673 18.6172C81.6277 18.7914 80.9831 18.9482 80.3485 19.1448C77.7329 19.9512 77.3272 20.8222 77.8648 23.4328C79.0743 29.2887 80.6944 35.0053 83.101 40.4879C83.3922 41.1498 83.6535 41.7795 84.5594 42.4166C83.8003 38.813 82.8496 35.5777 82.8447 32.203C82.8447 28.8383 82.8447 25.4736 82.8447 21.7331ZM100.465 12.5697C98.5558 17.0518 99.7976 29.4754 101.478 32.4842C100.741 24.8987 103.312 18.0971 105.283 11.1387C103.277 10.8624 101.841 11.2133 100.465 12.5697ZM53.5154 58.8146C54.583 59.9519 55.2226 61.5074 56.7706 62.3187C57.221 61.5148 56.793 60.9748 56.5889 60.3551C55.9394 58.394 54.6253 56.6992 54.252 54.646C54.0903 53.7501 53.9509 52.7297 53.0774 52.5058C51.9873 52.227 51.5941 53.434 50.9869 54.0936C50.5514 54.5689 50.7156 55.089 51.0665 55.5569C51.8256 56.5648 52.5871 57.5703 53.5154 58.8146ZM213.738 154.547C213.815 152.489 212.625 151.235 211.037 150.209C208.877 148.816 206.904 149.734 206.471 152.474C209.039 152.581 211.219 153.915 213.738 154.547ZM156.475 217.909C159.442 218.377 161.983 219.661 164.003 221.946C161.077 216.782 157.247 216.287 152.095 217.325C153.394 218.345 154.875 217.494 156.475 217.909ZM63.5971 41.8268C62.6364 39.4326 62.7634 36.7424 61.5638 34.2661C60.8869 34.6046 60.1478 34.7589 60.2274 35.7444C60.2647 36.2048 63.5174 42.1677 63.9878 42.6182C63.8783 42.3992 63.7887 42.2225 63.5971 41.8268Z" fill="#315442"/>
<path d="M158.827 58.1526C161.194 62.6845 164.265 66.5743 166.98 70.7006C170.156 75.5262 172.744 80.5757 173.513 86.469C173.931 89.6769 174.205 92.855 174.277 96.0853C174.327 98.2903 173.67 100.336 173.274 102.426C172.955 104.104 171.427 104.704 169.822 104.512C168.229 104.32 167.301 103.385 167.458 101.625C167.654 99.4226 167.888 97.2176 167.973 95.0102C168.311 86.2325 165.049 78.7117 159.989 71.7458C156.61 67.0945 153.322 62.3635 150.891 57.0949C147.322 49.3625 145.129 41.3888 146.152 32.7704C146.371 30.9288 147.521 29.993 149.231 29.9084C150.873 29.8263 152.073 30.6127 152.339 32.3971C152.399 32.7953 152.516 33.2308 152.414 33.5966C151.284 37.6905 152.533 41.6799 153.459 45.5026C154.519 49.8752 156.318 54.1309 158.827 58.1526Z" fill="#315442"/>
<path d="M153.481 72.3506C155.069 73.8015 156.59 75.113 158.058 76.4843C159.17 77.5246 159.887 78.8336 158.894 80.2348C157.916 81.6135 156.51 82.0814 154.823 81.2502C151.229 79.4757 148.643 76.5963 146.257 73.5029C142.538 68.6872 139.719 63.3515 137.979 57.5528C136.755 53.4689 135.754 49.258 136.14 44.8928C136.379 42.1801 138.37 40.901 140.739 41.8591C141.65 42.2274 141.916 42.8496 142.018 43.6983C142.394 46.8265 142.922 49.925 143.524 53.0209C144.368 57.3562 146.272 61.2236 148.32 65.0388C149.713 67.6295 151.448 70.0162 153.481 72.3506Z" fill="#315442"/>
<path d="M229.17 127.873C230.969 127.998 231.88 128.966 231.706 130.486C231.547 131.87 230.546 132.659 229.003 132.584C227.605 132.517 226.198 132.584 224.795 132.56C223.197 132.532 222.174 131.549 222.162 130.111C222.149 128.672 223.369 127.963 224.78 127.898C226.181 127.836 227.585 127.876 229.17 127.873Z" fill="#315442"/>
<path d="M29.8404 120.601C31.0972 120.604 32.1649 120.606 33.2325 120.614C34.7854 120.624 35.7212 121.57 35.7038 122.951C35.6864 124.334 34.6759 125.228 33.1802 125.27C32.0454 125.303 30.9106 125.285 29.7732 125.278C27.7648 125.265 26.416 124.337 26.5578 122.881C26.7345 121.087 27.9117 120.397 29.8404 120.601Z" fill="#315442"/>
<path d="M197.138 65.203C198.133 64.1877 199.002 63.2594 199.91 62.3709C201.028 61.2784 202.377 61.3705 203.322 62.351C204.154 63.2146 203.994 64.4938 203.141 65.4668C202.26 66.4723 201.326 67.4354 200.398 68.401C199.278 69.5657 197.817 69.9838 196.658 68.8689C195.568 67.8211 195.961 66.4051 197.138 65.203Z" fill="#315442"/>
<path d="M38.6255 156.548C39.9943 156.578 40.3676 157.407 40.5518 158.395C40.7459 159.435 40.3477 160.318 39.5015 160.834C38.078 161.702 36.5873 162.471 35.0816 163.19C34.0015 163.706 33.133 163.223 32.4685 162.319C31.7717 161.371 32.0952 160.45 32.7995 159.776C34.4072 158.243 36.2936 157.128 38.6255 156.548Z" fill="#315442"/>
<path d="M220.942 101.924C219.865 102.454 218.819 102.541 217.896 102.175C216.485 101.615 216.729 99.1837 218.359 98.2181C219.78 97.3769 221.348 96.7896 222.834 96.0529C224.021 95.4631 224.976 95.8389 225.576 96.8592C226.141 97.8199 225.845 98.7681 225.021 99.5595C223.881 100.647 222.239 100.831 220.942 101.924Z" fill="#315442"/>
<path d="M227.303 116.562C228.102 116.56 228.707 116.585 229.309 116.555C230.698 116.485 231.599 117.097 231.514 118.511C231.437 119.785 230.822 120.845 229.302 120.87C227.624 120.895 225.945 120.905 224.267 120.86C222.898 120.823 222.102 119.932 222.087 118.688C222.072 117.408 222.911 116.602 224.287 116.577C225.228 116.56 226.169 116.567 227.303 116.562Z" fill="#315442"/>
<path d="M186.185 53.755C186.845 52.9835 187.377 52.2817 188.019 51.7019C188.858 50.9453 189.761 50.4749 190.869 51.3833C191.949 52.2718 192.148 53.1627 191.277 54.31C190.394 55.4772 189.639 56.7465 188.719 57.8813C187.858 58.944 186.72 59.6657 185.429 58.6229C184.224 57.6499 184.505 56.3557 185.15 55.1562C185.399 54.6933 185.784 54.3026 186.185 53.755Z" fill="#315442"/>
<path d="M28.7803 109.776C29.9475 108.3 31.1868 108.033 32.7647 108.857C33.5735 109.28 34.5715 109.325 35.4475 109.641C36.9731 110.191 37.5504 111.391 36.9955 112.847C36.4903 114.176 35.3081 114.444 33.9866 113.962C32.6129 113.461 31.0948 113.446 29.8181 112.58C28.8126 111.901 28.2303 111.154 28.7803 109.776Z" fill="#315442"/>
<path d="M29.4895 139.69C30.9454 138.988 32.4063 139.202 33.7751 138.891C34.5341 138.719 35.5047 138.963 35.7909 139.837C36.1045 140.787 36.1916 141.85 35.2011 142.584C33.3147 143.983 31.0698 144.02 28.8823 144.102C28.2054 144.127 27.4712 143.609 27.3094 142.756C27.1526 141.93 27.1775 141.136 27.9839 140.603C28.4293 140.309 28.8848 140.028 29.4895 139.69Z" fill="#315442"/>
<path d="M211.513 184.658C210.612 183.944 209.783 183.369 209.039 182.699C208.19 181.935 207.583 180.982 208.424 179.897C209.161 178.946 210.109 178.424 211.401 179.101C212.655 179.758 213.842 180.512 214.857 181.482C215.654 182.241 216.637 183.018 215.776 184.389C214.92 185.75 213.69 185.656 212.409 185.35C212.115 185.278 211.881 184.961 211.513 184.658Z" fill="#315442"/>
<path d="M196.215 194.496C198.218 194.127 201.715 197.096 201.54 198.883C201.458 199.724 200.869 200.354 200.129 200.727C199.433 201.078 198.671 201.046 198.049 200.511C196.924 199.543 195.961 198.413 195.207 197.141C194.55 196.034 195.227 195.247 196.215 194.496Z" fill="#315442"/>
<path d="M84.0492 192.686C85.5648 194.891 85.4578 196.026 83.5539 197.607C80.3361 200.277 76.5906 202.076 72.8202 203.774C68.6068 205.67 64.1546 206.882 59.6376 207.848C57.8134 208.238 56.4695 207.574 55.6084 205.984C54.8369 204.56 55.576 203.079 57.1016 202.519C61.5489 200.889 66.2277 199.909 70.5281 197.895C73.6041 196.454 76.7449 195.095 79.5671 193.174C80.9707 192.216 82.3569 191.977 84.0492 192.686Z" fill="#315442"/>
<path d="M96.1965 91.1178C97.8515 88.4848 99.6583 88.3828 101.428 90.6549C104.272 94.3034 107.732 96.6975 112.634 96.4237C114.558 96.3167 115.857 97.6084 115.862 99.2335C115.867 100.747 114.424 102.2 112.667 102.232C105.805 102.359 100.228 100.017 96.734 93.7534C96.2911 92.957 96.0198 92.173 96.1965 91.1178Z" fill="#315442"/>
<path d="M120.15 108.907C119.613 110.614 118.323 111.174 116.917 111.49C111.788 112.645 106.945 111.645 102.311 109.375C101.729 109.091 101.231 108.581 100.781 108.096C99.8449 107.093 99.7479 105.851 100.44 104.768C101.064 103.788 102.157 103.541 103.304 103.979C104.429 104.407 105.591 104.751 106.666 105.281C109.772 106.812 113.028 106.697 116.305 106.237C118.702 105.896 119.787 106.543 120.15 108.907Z" fill="#315442"/>
<path d="M110.385 92.188C105.579 90.859 101.94 88.2683 99.708 83.8782C99.0709 82.6264 99.2451 81.5115 100.236 80.5957C101.161 79.7396 102.157 79.7196 103.354 80.3344C104.827 81.0909 105.332 82.6837 106.569 83.5796C107.963 84.59 109.202 85.7796 110.872 86.459C112.194 86.9941 113.555 87.895 113.314 89.7341C113.107 91.3145 111.94 91.8993 110.385 92.188Z" fill="#315442"/>
<path d="M163.521 163.459C164.743 162.031 166.462 161.909 167.911 161.294C169.757 160.508 171.504 159.549 173.294 158.666C174.817 157.914 176.422 157.666 177.445 159.151C178.383 160.513 178.144 162.071 176.711 163.235C173.692 165.687 170.156 167.108 166.44 167.899C163.697 168.484 162.418 166.451 163.521 163.459Z" fill="#315442"/>
<path d="M119.306 120.009C118.453 120.666 117.637 120.883 116.733 120.88C114.391 120.868 112.047 120.875 109.705 120.878C108.145 120.878 106.846 120.201 105.766 119.163C105.161 118.583 104.444 117.829 104.972 116.878C105.517 115.895 106.126 114.852 107.54 114.979C107.873 115.009 108.229 114.964 108.535 115.069C111.467 116.069 114.371 116.162 117.355 115.176C118.756 114.713 119.924 115.609 120.434 116.826C120.904 117.941 120.847 119.233 119.306 120.009Z" fill="#315442"/>
<path d="M118.719 129.635C117.47 129.78 116.41 129.839 115.397 129.314C114.481 128.841 114.267 128.077 114.309 127.129C114.347 126.231 114.712 125.37 115.546 125.25C117.968 124.907 120.053 123.541 122.452 123.17C123.998 122.931 125.352 123.17 125.934 124.77C126.561 126.482 125.322 127.381 124.075 128.102C122.48 129.026 120.688 129.342 118.719 129.635Z" fill="#315442"/>
<path d="M132.706 131.539C133.188 133.408 132.143 134.404 130.857 135.053C129.192 135.894 127.427 136.564 125.665 137.191C124.177 137.719 122.504 136.92 121.969 135.588C121.307 133.936 122.512 133.177 123.595 132.574C125.461 131.532 127.402 130.601 129.378 129.787C130.944 129.145 131.852 130.272 132.706 131.539Z" fill="#315442"/>
<path d="M153.245 144.316C155.831 145.633 156.547 146.695 155.86 148.057C155.139 149.488 152.725 150.087 150.851 149.304C148.345 148.256 147.386 145.964 148.88 144.339C150.174 142.935 151.677 143.629 153.245 144.316Z" fill="#315442"/>
<path d="M135.209 140.26C136.075 141.111 136.869 140.949 137.663 140.406C138.95 139.528 138.407 138.316 138.076 137.091C140.119 138.047 140.632 140.003 139.199 141.243C137.651 142.582 135.727 143.266 133.706 143.403C132.288 143.5 131.257 142.596 130.914 141.245C130.595 139.993 131.484 139.299 132.507 138.761C134.331 137.801 134.565 137.908 135.209 140.26Z" fill="#315442"/>
</svg>
